# xmcd CD database file
#
# Track frame offsets:
#	150
#	33062
#	47527
#	68230
#	94597
#	124865
#	139990
#	163615
#	183792
#	227950
#	286727
#
# Disc length: 4435 seconds
#
# Revision: 0
# Processed by: cddbd v1.5.1PL2 Copyright (c) Steve Scherf et al.
# Submitted via: CDex 1.51
#
DISCID=8e11510b
DTITLE=Lisa Otey - Trio
DYEAR=2005
DGENRE=Jazz
TTITLE0=Night and Day
TTITLE1=My Funny Valentine (Euro version)
TTITLE2=Your True Desire
TTITLE3=Honeysuckle Rose
TTITLE4=Under Paris Skies/Et Maintenant
TTITLE5=Gossip
TTITLE6=Trust Me Baby
TTITLE7=Boogie in 3
TTITLE8=Crazy Harry (live)
TTITLE9=At Last (live)
TTITLE10=Night and Day (alternate take)
EXTD=YEAR: 2005
EXTT0=
EXTT1=
EXTT2=
EXTT3=
EXTT4=
EXTT5=
EXTT6=
EXTT7=
EXTT8=
EXTT9=
EXTT10=
PLAYORDER=
